<svg xmlns="http://www.w3.org/2000/svg" viewBox="0 0 200 200" width="200" height="200" role="img" aria-label="Ball Corporation"><rect x="1" y="1" width="198" height="198" rx="28" fill="#f0eee9" stroke="#252525" stroke-opacity="0.12" stroke-width="2" /><g transform="matrix(0.79938994 0 0 0.79938994 19.80320282 9.47244682)"><path style=" stroke:none;fill-rule:nonzero;fill:#252525;fill-opacity:1;" d="M 10.742188 140.648438 C 16.019531 131.269531 19.242188 125.320312 24.667969 116.820312 C 40.871094 92.480469 43.550781 84.410156 61.101562 61.828125 C 62.964844 60.046875 70.136719 50.597656 71.90625 49.195312 C 61.613281 48.316406 49.832031 52.421875 46.296875 53.761719 C 32.277344 60.488281 24.667969 69.960938 23.316406 72.683594 C 21.476562 75.816406 20.589844 80.285156 21.988281 83.007812 C 22.875 84.851562 25.109375 87.480469 30.070312 87.480469 C 27.320312 90.707031 24.222656 90.707031 21.035156 90.707031 C 15.703125 90.707031 12.957031 87.480469 11.558594 84.410156 C 10.277344 80.75 11.1875 76.257812 12.511719 73.117188 C 17.027344 62.335938 31.394531 53.761719 38.65625 51.039062 C 52.582031 46.058594 59.777344 44.28125 75.539062 45.253906 C 78.652344 42.027344 82.734375 39.378906 85.035156 37.992188 C 89.019531 35.273438 93.09375 35.273438 95.839844 35.710938 C 98.511719 36.152344 98.957031 38.433594 98.511719 40.253906 C 98.074219 41.585938 97.097656 42.46875 95.839844 43.847656 C 95.328125 42.027344 93.53125 39.378906 89.921875 40.691406 C 88.132812 41.585938 86.363281 42.972656 81.84375 46.503906 C 85.871094 47.585938 88.714844 48.859375 90.507812 50.503906 C 91.773438 51.679688 92.613281 52.785156 93.09375 53.761719 C 94.582031 56.820312 96.277344 63.207031 91.695312 69.527344 C 89.460938 72.222656 84.058594 80.285156 67.832031 83.007812 C 71.90625 85.722656 79.097656 89.757812 75.980469 101.929688 C 75.09375 106.402344 70.136719 119.539062 57.539062 125.761719 C 53.535156 127.605469 47.621094 128.480469 41.777344 125.761719 C 38.65625 124.445312 36.351562 121.726562 34.515625 119.539062 L 38.148438 111.378906 C 37.773438 112.785156 36.351562 114.976562 36.796875 116.316406 C 38.65625 119.539062 44.507812 120.730469 48.554688 120.921875 C 51.382812 121.058594 53.90625 120.261719 56.140625 118.664062 C 64.457031 112.714844 72.511719 95.5 67.832031 89.757812 C 66.035156 86.941406 63.40625 85.722656 59.777344 85.289062 C 56.65625 85.289062 53.5625 85.648438 50.742188 88.007812 L 56.140625 78.535156 C 55.769531 79.84375 56.367188 80.070312 56.65625 80.285156 C 58.164062 81.417969 63.40625 81.625 67.832031 80.285156 C 80.054688 76.257812 87.6875 62.335938 86.363281 56.015625 C 85.9375 54.503906 84.570312 51.476562 78.285156 49.726562 C 76.445312 51.039062 70.136719 59.175781 64.734375 67.308594 C 57.097656 78.535156 49.019531 91.074219 42.21875 105.085938 C 36.351562 115.871094 33.628906 123.136719 28.742188 134.773438 L 10.742188 140.648438 " />
<path style=" stroke:none;fill-rule:evenodd;fill:#252525;fill-opacity:1;" d="M 158.839844 77.394531 C 158.328125 83.246094 163.753906 90.265625 176.789062 89.324219 C 182.65625 88.878906 189.011719 86.835938 195.394531 85.058594 L 195.394531 90.496094 C 187.238281 92.566406 182.863281 93.722656 174.578125 96.144531 C 161.609375 100.019531 156.582031 101.488281 143.472656 105.964844 C 130.875 110.941406 107.839844 119.246094 86.804688 131.199219 C 67.289062 142.289062 56.960938 149.882812 39.542969 164.042969 C 25.445312 175.503906 17.847656 182.488281 5.25 195.574219 L 5.25 172.179688 C 12.074219 165.863281 40.871094 146.070312 61.101562 135.304688 C 81.84375 124.445312 98.957031 116.316406 123.242188 106.402344 C 133.1875 102.804688 157.910156 95.40625 163.398438 93.355469 C 159.679688 92.480469 157.929688 92.359375 155.253906 90.265625 C 153.277344 88.726562 152.304688 87.53125 151.179688 85.289062 C 147.175781 89.324219 145.316406 90.707031 142.660156 92.914062 C 137.605469 96.511719 130.785156 100.636719 125.988281 98.125 C 123.9375 97.070312 123.199219 95.535156 122.355469 93.355469 C 118.351562 98.332031 107.011719 110.941406 102.054688 106.90625 C 101.167969 106.402344 100.359375 103.679688 100.359375 101.929688 C 97.609375 106.03125 95.023438 108.75 92.207031 110.941406 C 87.921875 114.332031 83.039062 113.292969 81.402344 111.839844 C 80.429688 111.03125 79.542969 109.257812 80.054688 104.648438 C 80.796875 97.828125 87.621094 87.203125 91.394531 82.5 C 96.515625 76.1875 101.167969 72.453125 105.175781 72.683594 C 107.621094 72.75 109.382812 73.542969 110.269531 75.800781 L 107.503906 81.417969 C 107.71875 80.09375 107.59375 79.195312 107.011719 78.972656 C 105.792969 78.246094 104.296875 78.726562 102.820312 79.75 C 101.613281 80.585938 100.308594 81.675781 99.253906 82.828125 C 97.53125 84.707031 95.6875 86.957031 94.210938 89.21875 C 91.125 93.914062 89.46875 98.921875 91.324219 101.050781 C 92.402344 102.480469 95.089844 101.683594 97.617188 99.503906 C 98.804688 98.476562 99.574219 97.777344 101.019531 95.648438 C 104.175781 90.992188 106.953125 84.820312 107.503906 81.417969 L 110.367188 75.511719 C 110.367188 75.511719 111.550781 73.554688 112.4375 71.78125 L 119.703125 70.839844 C 116.957031 76.714844 108.4375 95.175781 110.648438 96.511719 C 112.882812 97.898438 119.167969 91.582031 121.917969 88.445312 C 122.355469 83.878906 123.242188 80.75 124.660156 77.152344 C 126.871094 71.78125 130.875 63.207031 135.835938 56.015625 C 142.660156 46.503906 150.734375 36.589844 156.140625 35.710938 C 157.910156 35.273438 160.144531 35.710938 160.65625 38.433594 C 160.65625 38.867188 161.097656 41.585938 158.863281 46.503906 C 157.023438 50.597656 153.390625 56.917969 150.734375 60.949219 C 145.316406 69.527344 140.796875 74.871094 136.71875 79.410156 C 135.394531 80.75 133.464844 82.867188 130.433594 85.722656 L 131.832031 78.535156 C 138.585938 73.117188 143.914062 65.050781 149.832031 55.074219 C 151.179688 52.421875 154.277344 46.503906 152.503906 45.253906 C 151.179688 44.28125 145.753906 48.757812 139.46875 59.175781 C 136.28125 64.082031 131.390625 75.375 131.832031 78.535156 L 130.445312 85.746094 C 130.214844 89.183594 131.179688 91.949219 136.789062 90.863281 C 140.796875 90.195312 143.472656 88.445312 150.734375 80.285156 C 152.0625 73.117188 153.390625 68.996094 156.140625 63.207031 C 158.863281 56.457031 162.425781 50.53125 164.660156 46.9375 C 169.011719 40.324219 172.066406 37.761719 175.464844 34.835938 C 177.769531 32.785156 184.425781 29.398438 187.242188 31.675781 C 188.5 32.625 188.128906 35.777344 187.101562 38.9375 C 186.195312 41.289062 183.613281 47.578125 179.09375 53.761719 C 175.535156 58.664062 171.085938 64.246094 166.945312 68.554688 C 164.496094 71.136719 161.097656 75.355469 158.859375 77.132812 L 159.679688 70.832031 C 164.8125 66.875 172.203125 57.195312 177.230469 48.316406 C 179.09375 44.953125 181.773438 39.742188 179.539062 39.378906 C 176.347656 37.992188 168.734375 49.195312 165.613281 54.632812 C 162.425781 60.488281 160.1875 67.011719 159.722656 70.539062 L 158.839844 77.394531 " />
</g></svg>
